PathFileType	4	(X/Y/Z)	Patient4_TMGait_0pt8_01_right_17.trc.trc
DataRate	CameraRate	NumFrames	NumMarkers	Units	OrigDataRate	OrigDataStartFrame	OrigNumFrames
88.050314465409	88.050314465409	4	33	mm	88.050314465409	18	       141
Frame#	Time	Sacral			L.Shoulder			Chest			R.Shoulder			Neck			R.ASIS			L.ASIS			R.Thigh.Superior			R.Thigh.Lateral			R.Thigh.Inferior			R.Patella			L.Thigh.Superior			L.Thigh.Lateral			L.Thigh.Inferior			L.Patella			L.Shank.Superior			L.Shank.Lateral			L.Shank.Inferior			R.Shank.Superior			R.Shank.Lateral			R.Shank.Inferior			R.Heel			R.Midfoot.Superior			R.Midfoot.Lateral			R.Toe			L.Heel			L.Midfoot.Lateral			L.Midfoot.Superior			L.Toe			L.Elbow			L.Wrist			R.Elbow			R.Wrist			
		X1	Y1	Z1	X2	Y2	Z2	X3	Y3	Z3	X4	Y4	Z4	X5	Y5	Z5	X6	Y6	Z6	X7	Y7	Z7	X8	Y8	Z8	X9	Y9	Z9	X10	Y10	Z10	X11	Y11	Z11	X12	Y12	Z12	X13	Y13	Z13	X14	Y14	Z14	X15	Y15	Z15	X16	Y16	Z16	X17	Y17	Z17	X18	Y18	Z18	X19	Y19	Z19	X20	Y20	Z20	X21	Y21	Z21	X22	Y22	Z22	X23	Y23	Z23	X24	Y24	Z24	X25	Y25	Z25	X26	Y26	Z26	X27	Y27	Z27	X28	Y28	Z28	X29	Y29	Z29	X30	Y30	Z30	X31	Y31	Z31	X32	Y32	Z32	X33	Y33	Z33	

18	19.043071428571	896.142088293081	999.494240501434	397.521252609567	1091.963739801637	1432.150591472095	238.202272571225	1174.860950759368	1359.425594569341	408.955416579099	1071.256094703182	1429.186371543982	573.444414995431	1055.029741111152	1489.348073877963	392.311122107532	1114.806715481046	939.815347675317	532.464584878848	1118.011431526768	957.163265463398	256.180093633985	1193.660160624749	774.420995321079	506.839640973534	1158.987428037610	649.667292392634	580.919569653000	1251.365292425705	617.181482826487	502.757064965747	1289.576862632458	533.414302308377	522.653990324779	1112.863709511188	726.910915651750	284.959710783607	990.198285003042	634.711353830154	227.059484932891	1048.698983792012	540.649203956389	291.631469361824	1032.524108375250	476.426386696882	302.467507671550	999.822776358825	410.906478754959	297.776096246133	896.602960514784	304.149501020173	255.575520745369	940.507654417693	190.975501343210	329.574067859834	1272.613907237429	444.543328216771	531.045158427780	1217.354306919718	329.842698274428	591.423328974991	1289.483066896508	244.541004279608	542.217532561260	1199.954937394448	56.797285261420	506.819780226132	1360.026331401434	131.495082269426	557.143210631455	1280.514153071588	53.550001148575	584.732132440700	1482.923705179596	94.715688584613	588.419049752704	806.766012953491	40.267008377031	386.976487766298	875.172893694115	35.385015698351	302.106592695770	960.908343649240	95.916199401846	322.617444932858	1086.770027204064	41.217525381616	286.929645988697	1199.687826552307	1122.588014950359	82.651853078198	1454.464672034393	1098.457274138794	113.804969810829	893.527353818171	1132.824946000960	663.207617197491	822.800484598698	882.990678203011	676.031684514837	
19	19.054428571429	897.165647842389	997.400306324623	398.428991402874	1092.114783482494	1430.165677049140	239.050745473296	1174.777216630865	1357.935798430051	410.116251579053	1070.595369052275	1427.899600739850	574.124165184097	1054.645185497916	1487.450260801749	392.987135841721	1115.826881929713	937.633211813648	533.767982920911	1119.173447326995	955.533304767215	257.398011164110	1192.930384049626	770.294108716440	508.063797441252	1156.313639045174	645.439206696432	581.152814464057	1248.461955242774	612.599702355693	502.853975272305	1285.927910057188	529.918189985608	521.763821941950	1111.696967305769	724.893266900661	285.707890130968	988.037544526576	633.816961156561	227.488744032939	1045.328047343944	539.147982265255	292.233731974472	1028.410123796743	474.746363532444	302.861391132419	994.796770925187	409.674712801919	298.054913472636	890.211221621284	304.248009777262	255.685249266273	932.649351627192	190.463789497225	329.560783458245	1270.888509479722	441.221556480012	530.270135560662	1217.731952931749	325.052499541060	589.765285732900	1292.193578698191	241.552708390808	540.580962115763	1207.224117616153	51.730218447414	504.079158785430	1365.384467197069	129.794654692673	555.049356645798	1287.328959577757	50.695875482086	582.667332440534	1489.004107641780	96.017565389893	587.562696941601	797.599214286922	40.445257066136	386.783756023902	866.052565693543	35.386915939955	302.008630929249	951.803043151327	95.855621009425	322.565025374193	1077.637735437052	41.026648543084	286.915599600872	1202.576077750329	1122.361392016326	83.371091548878	1457.301026065388	1107.776571034070	116.790755635050	889.329969060026	1134.704338018200	663.561032535228	815.255113453555	885.859750650384	676.767868639564	
20	19.065785714286	898.314325041710	995.215670712433	399.647158299141	1092.128369075457	1428.135775962968	239.999674281762	1174.717923743566	1356.454513500101	411.318263578505	1070.023475600427	1426.490195611503	574.961658697095	1054.259803859137	1485.511353282012	393.807673223105	1117.086311354469	935.408253114280	535.126017676490	1120.382697611521	953.818210699416	258.717399145364	1192.837289323053	766.395314714422	509.268114506692	1154.269626742514	641.388716279236	581.175327685005	1246.224021714567	608.281651684442	502.845963705576	1282.755072936483	526.263699196038	520.783855963889	1110.985564199206	722.875494953832	286.553564684666	986.448115424240	632.805958442907	228.076506752429	1042.658060270796	537.549194671927	292.937019357406	1025.027716718012	472.873745754949	303.392409158125	990.393508801323	408.263570944232	298.447643892566	884.281649586165	304.371996593276	255.874465330159	925.010790699904	189.899378809050	329.569865558919	1268.954063909594	437.590466725230	529.304628488466	1216.883760333690	320.499356353805	587.808280562359	1292.791495598484	238.246007128243	538.615232297715	1210.555203488836	47.674324158962	501.117503506231	1367.505590250048	127.332265882877	552.507536457646	1290.139919232701	48.103954803023	580.300425993176	1491.370936553435	95.263688344237	586.189164269229	788.436079361948	40.752465971445	386.527657819528	856.956932297216	35.428654885051	301.874426037284	942.737246164374	95.817494517118	322.481429169791	1068.530306551622	40.793639394746	286.881203404239	1204.943747544937	1121.797352448702	84.270965286324	1459.266903171821	1116.005962088838	119.837989434150	886.187760681610	1135.727784776687	664.047407005786	809.262866129940	887.763932721665	677.675246267817	
21	19.077142857143	899.572080378160	993.003759530875	401.175243181774	1092.017626938416	1426.113785872874	241.057539514470	1174.700540193413	1355.022711077292	412.565063213981	1069.565485755042	1424.994295634823	575.973216199799	1053.904226298444	1483.586274393039	394.785408715234	1118.571139077956	933.209251668081	536.528474107725	1121.627473102770	952.065386488079	260.120359455686	1193.404811858076	762.807216093595	510.435893131665	1152.861084276271	637.601665046418	580.982774387747	1244.703440185697	604.339456579045	502.756865140306	1280.137850987978	522.563432556468	519.713857901039	1110.723461845332	720.894103050073	287.463737646575	985.391950593757	631.720878506016	228.836650296263	1040.680022545501	535.879043119401	293.716672098557	1022.387974239526	470.833560651539	304.028560487206	986.601249401829	406.710155330168	298.938647977242	878.798193660023	304.567229701890	256.141818386570	917.591801631321	189.327472067597	329.582707629149	1266.929078866458	433.762626320923	528.160882720076	1215.030005287167	316.238398609511	585.670248573167	1291.519913538957	234.653912825975	536.401615858657	1210.203506288711	44.547786934325	498.121335769776	1366.718517427276	124.132105258657	549.627181162177	1289.284430054163	45.735763786083	577.787827829823	1490.427710376327	92.481477251207	584.328265450179	779.276835361340	41.251384331882	386.199978665612	847.886463259663	35.530788585887	301.697747591219	933.730646866452	95.815457978723	322.342727278096	1059.450163331453	40.519711233373	286.824144953735	1206.757721212219	1120.897338190714	85.350284416589	1460.422614101518	1123.083133418338	122.918227395826	884.143599693410	1135.849940246516	664.691940027240	804.868060295132	888.657371473045	678.766890907733	
